<?xml version="1.0" encoding="UTF-8"?> <svg xmlns="http://www.w3.org/2000/svg" id="a" data-name="Layer 1" width="5in" height="2.96in" viewBox="0 0 360 212.93"><g><path d="M204.4,26.4c3.1-3.1,7.52-4.66,13.25-4.66s10.32,1.46,13.43,4.39c3.1,2.93,4.65,7,4.65,12.24,0,11.57-8.65,17.35-25.93,17.35h-5.29v21.01h5.29c9.74,0,16.93,1.58,21.56,4.74,4.63,3.16,6.94,8.41,6.94,15.71,0,4.76-1.27,8.75-3.79,11.99h27.13c.74-3.09,1.13-6.36,1.13-9.8,0-8.76-1.99-15.95-5.93-21.55-3.96-5.6-9.48-9.5-16.54-11.69v-.74c5.48-1.82,10.2-5.39,14.16-10.68,3.96-5.3,5.93-11.78,5.93-19.45,0-6.7-1.62-12.7-4.84-17.99-3.22-5.29-8-9.5-14.34-12.6-6.33-3.1-13.94-4.66-22.83-4.66-13.03,0-23.53,3.33-31.5,9.96-7.98,6.63-12.27,16.04-12.88,28.22h25.02c.49-4.76,2.28-8.68,5.39-11.78Z" fill="#fff"></path><path d="M201.91,109.16c-3.05-3.43-4.69-7.78-4.91-13.08h-24.84c.17,4.77.86,9.13,2.06,13.08h27.69Z" fill="#fff"></path></g><g><path d="M95.7,148.28v10.93h-2.19v-4.65h-4.68v4.65h-2.19v-10.93h2.19v4.5h4.68v-4.5h2.19Z" fill="#fff"></path><path d="M104.03,158.61c-.86-.48-1.54-1.15-2.04-2-.5-.85-.75-1.81-.75-2.89s.25-2.02.75-2.87,1.18-1.52,2.04-2c.86-.48,1.8-.72,2.82-.72s1.98.24,2.83.72c.85.48,1.52,1.15,2.02,2,.5.85.74,1.81.74,2.87s-.25,2.04-.74,2.89c-.5.85-1.17,1.52-2.03,2-.86.48-1.8.72-2.82.72s-1.96-.24-2.82-.72ZM108.59,156.92c.5-.3.89-.72,1.17-1.28.28-.55.42-1.2.42-1.93s-.14-1.37-.42-1.92c-.28-.55-.67-.97-1.17-1.26-.5-.29-1.08-.44-1.74-.44s-1.24.15-1.75.44c-.51.29-.9.71-1.18,1.26-.28.55-.42,1.19-.42,1.92s.14,1.37.42,1.93c.28.55.68.98,1.18,1.28s1.09.45,1.75.45,1.24-.15,1.74-.45Z" fill="#fff"></path><path d="M129.91,148.28v10.93h-2.19v-7.11l-2.93,7.11h-1.66l-2.94-7.11v7.11h-2.19v-10.93h2.49l3.48,8.13,3.48-8.13h2.47Z" fill="#fff"></path><path d="M138.18,150.05v2.74h3.68v1.74h-3.68v2.9h4.15v1.79h-6.34v-10.95h6.34v1.79h-4.15Z" fill="#fff"></path><path d="M149.95,158.94c-.61-.26-1.09-.64-1.45-1.13-.36-.49-.54-1.07-.55-1.74h2.35c.03.45.19.8.48,1.07s.68.39,1.18.39.91-.12,1.21-.37c.29-.25.44-.57.44-.96,0-.32-.1-.59-.3-.8s-.45-.37-.74-.49-.71-.25-1.23-.4c-.71-.21-1.29-.41-1.73-.62-.44-.2-.83-.51-1.14-.92-.32-.41-.48-.96-.48-1.65,0-.65.16-1.21.49-1.69.32-.48.78-.85,1.36-1.1.58-.26,1.25-.38,2-.38,1.13,0,2.04.27,2.75.82.71.55,1.09,1.31,1.17,2.29h-2.41c-.02-.38-.18-.69-.48-.93-.3-.24-.69-.37-1.18-.37-.43,0-.77.11-1.03.33-.26.22-.38.54-.38.96,0,.29.1.54.29.73.19.19.43.35.72.47s.69.26,1.21.41c.71.21,1.29.42,1.74.63.45.21.84.52,1.16.94.32.42.49.97.49,1.65,0,.58-.15,1.13-.45,1.63-.3.5-.75.9-1.33,1.2-.59.3-1.28.45-2.08.45-.76,0-1.45-.13-2.06-.39Z" fill="#fff"></path><path d="M171.53,157.48h3.6v1.74h-5.8v-10.93h2.19v9.19Z" fill="#fff"></path><path d="M187.88,148.28v1.77h-2.91v9.16h-2.19v-9.16h-2.91v-1.77h8.02Z" fill="#fff"></path><path d="M200.24,148.96c.87.45,1.55,1.09,2.02,1.92.48.83.71,1.79.71,2.89s-.24,2.05-.71,2.87c-.47.82-1.15,1.45-2.02,1.9-.87.45-1.88.67-3.03.67h-3.82v-10.93h3.82c1.15,0,2.16.22,3.03.67ZM199.8,156.41c.63-.63.94-1.51.94-2.65s-.31-2.03-.94-2.67c-.63-.64-1.51-.96-2.66-.96h-1.55v7.22h1.55c1.15,0,2.04-.31,2.66-.94Z" fill="#fff"></path><path d="M208.53,158.96c-.26-.24-.38-.55-.38-.92s.13-.67.38-.92c.26-.24.58-.37.98-.37s.7.12.96.37c.25.25.38.55.38.92s-.13.67-.38.92c-.25.25-.57.37-.96.37s-.72-.12-.98-.37Z" fill="#fff"></path></g><g><path d="M82.24,173.8v9.47h-1.9v-6.16l-2.54,6.16h-1.44l-2.55-6.16v6.16h-1.9v-9.47h2.16l3.01,7.05,3.01-7.05h2.14Z" fill="#fff"></path><path d="M93.31,181.47h-3.77l-.62,1.81h-2l3.41-9.49h2.21l3.41,9.49h-2.01l-.62-1.81ZM92.8,179.95l-1.37-3.96-1.37,3.96h2.74Z" fill="#fff"></path><path d="M102.1,183.03c-.53-.23-.95-.55-1.26-.98-.31-.43-.47-.93-.48-1.51h2.04c.03.39.17.7.41.92.25.23.59.34,1.03.34s.79-.11,1.05-.32c.25-.21.38-.49.38-.83,0-.28-.09-.51-.26-.69s-.39-.32-.65-.43-.61-.22-1.07-.35c-.62-.18-1.12-.36-1.5-.54-.38-.18-.71-.44-.99-.8-.28-.36-.41-.83-.41-1.43,0-.56.14-1.05.42-1.47s.67-.74,1.18-.96c.51-.22,1.09-.33,1.74-.33.98,0,1.77.24,2.38.71.61.48.95,1.14,1.01,1.99h-2.09c-.02-.33-.16-.59-.41-.81-.26-.21-.6-.32-1.03-.32-.37,0-.67.1-.89.29s-.33.47-.33.83c0,.25.08.46.25.63.17.17.38.3.62.41.25.1.6.22,1.05.36.61.18,1.12.36,1.51.54.39.18.72.45,1,.81s.42.84.42,1.43c0,.51-.13.98-.39,1.41-.26.43-.65.78-1.15,1.04s-1.11.39-1.81.39c-.66,0-1.26-.11-1.78-.34Z" fill="#fff"></path><path d="M118.72,173.8v1.53h-2.52v7.94h-1.9v-7.94h-2.52v-1.53h6.95Z" fill="#fff"></path><path d="M125.4,175.34v2.38h3.19v1.51h-3.19v2.51h3.6v1.55h-5.5v-9.49h5.5v1.55h-3.6Z" fill="#fff"></path><path d="M139.01,183.28l-2.09-3.69h-.9v3.69h-1.9v-9.47h3.56c.73,0,1.36.13,1.87.39.52.26.9.61,1.16,1.05.26.44.39.93.39,1.47,0,.62-.18,1.19-.54,1.69s-.9.85-1.61,1.04l2.27,3.84h-2.2ZM136.02,178.16h1.59c.52,0,.9-.12,1.15-.37.25-.25.38-.6.38-1.04s-.13-.77-.38-1.01c-.25-.24-.64-.36-1.15-.36h-1.59v2.78Z" fill="#fff"></path><path d="M159.53,179.22c.34.43.52.93.52,1.49,0,.51-.12.95-.37,1.34s-.61.69-1.08.9c-.47.22-1.03.33-1.67.33h-4.09v-9.47h3.91c.64,0,1.2.1,1.66.31.47.21.82.5,1.06.87s.36.79.36,1.26c0,.55-.15,1.01-.44,1.39s-.69.63-1.18.79c.53.1.97.37,1.32.8ZM154.74,177.71h1.74c.45,0,.8-.1,1.04-.31.24-.2.37-.5.37-.88s-.12-.67-.37-.88c-.24-.21-.59-.31-1.04-.31h-1.74v2.38ZM157.73,181.4c.26-.22.39-.52.39-.92s-.14-.73-.41-.96c-.27-.23-.64-.35-1.1-.35h-1.87v2.55h1.91c.46,0,.82-.11,1.08-.33Z" fill="#fff"></path><path d="M166.83,173.8v5.86c0,.64.17,1.13.5,1.47.33.34.8.51,1.41.51s1.09-.17,1.43-.51c.33-.34.5-.83.5-1.47v-5.86h1.91v5.85c0,.81-.17,1.49-.52,2.04-.35.56-.81.98-1.4,1.26-.58.28-1.23.42-1.95.42s-1.35-.14-1.92-.42c-.57-.28-1.03-.7-1.36-1.26-.34-.56-.5-1.24-.5-2.04v-5.85h1.9Z" fill="#fff"></path><path d="M179.71,173.8v9.47h-1.9v-9.47h1.9Z" fill="#fff"></path><path d="M186.88,181.77h3.12v1.51h-5.02v-9.47h1.9v7.97Z" fill="#fff"></path><path d="M200.54,174.39c.76.39,1.34.94,1.75,1.66.41.72.62,1.55.62,2.5s-.21,1.78-.62,2.49c-.41.71-1,1.26-1.75,1.65-.75.39-1.63.58-2.63.58h-3.31v-9.47h3.31c.99,0,1.87.19,2.63.58ZM200.16,180.85c.54-.54.82-1.31.82-2.29s-.27-1.76-.82-2.31c-.54-.56-1.31-.84-2.31-.84h-1.34v6.26h1.34c.99,0,1.76-.27,2.31-.81Z" fill="#fff"></path><path d="M209.63,175.34v2.38h3.19v1.51h-3.19v2.51h3.6v1.55h-5.5v-9.49h5.5v1.55h-3.6Z" fill="#fff"></path><path d="M223.24,183.28l-2.09-3.69h-.9v3.69h-1.9v-9.47h3.56c.73,0,1.36.13,1.87.39s.9.61,1.16,1.05c.26.44.39.93.39,1.47,0,.62-.18,1.19-.54,1.69s-.9.85-1.61,1.04l2.27,3.84h-2.2ZM220.25,178.16h1.59c.52,0,.9-.12,1.15-.37.25-.25.38-.6.38-1.04s-.13-.77-.38-1.01c-.25-.24-.64-.36-1.15-.36h-1.59v2.78Z" fill="#fff"></path></g><g><g><rect x="43.82" y="177.53" width="20.7" height=".72" fill="#fff"></rect><rect x="43.21" y="176.92" width="21.91" height="1.94" fill="#fff"></rect></g><g><rect x="232.57" y="177.53" width="20.7" height=".72" fill="#fff"></rect><rect x="231.96" y="176.92" width="21.91" height="1.94" fill="#fff"></rect></g></g><g><path d="M48.87,124.06c1.09.25,2.22.3,3.01.3,1.53,0,3.99-1.58,5.08-3.3.98-1.53,1.18-3.4,1.18-5.22,0-6.8-4.93-8.23-6.95-8.23-.84,0-1.43.05-2.32.25v16.22ZM48.87,127.81c0,2.32.05,9.02.1,9.62.1,1.08.59,1.57,1.38,1.57h2.51c.35,0,.39.15.39.35v1.28c0,.25-.05.39-.44.39-.69,0-2.22-.15-7.99-.15-4.33,0-6.26.15-6.8.15-.34,0-.39-.15-.39-.35v-1.33c0-.25.05-.35.29-.35h1.28c1.67,0,2.02-.25,2.17-1.48.05-.49.2-8.18.2-13.9v-5.67c0-3.25-.05-8.43-.1-9.02-.1-.99-.59-1.08-1.58-1.08h-2.31c-.25,0-.3-.1-.3-.39v-1.28c0-.25.05-.35.3-.35.54,0,2.31.15,7.49.15.89,0,3.79-.15,5.42-.15,6.06,0,8.97.49,11.83,2.71,2.07,1.58,3.55,4.39,3.55,7.64,0,5.92-4.73,9.96-13.01,9.96-1.53,0-2.66-.05-3.99-.15v1.82Z" fill="#fff"></path><path d="M76.62,137.12c0,1.53.49,2.02,1.53,2.02h2.02c.3,0,.35.15.35.44v.98c0,.3-.05.44-.24.44-.3,0-2.56-.15-7-.15-3.79,0-5.86.15-6.16.15-.2,0-.3-.1-.3-.49v-.94c0-.35.1-.44.54-.44h1.43c.74,0,1.18-.3,1.28-1.18.1-1.38.1-3.1.1-5.57v-4.09c0-2.12-.49-3.01-1.97-3.84l-.84-.49c-.29-.15-.4-.25-.4-.44v-.44c0-.2.1-.29.4-.39l6.9-3.01c.29-.1.49-.2.79-.2.35,0,.54.29.59.59l.44,3.85h.35c1.53-3.26,3.69-4.73,5.86-4.73,1.48,0,2.61,1.13,2.61,2.86,0,1.33-1.53,2.81-3.16,2.81-.69,0-1.33-.15-1.77-.44-.39-.25-.84-.35-1.23-.35-.49,0-.98.25-1.28.89-.64,1.33-.84,2.27-.84,2.91v9.27Z" fill="#fff"></path><path d="M100.92,130.07c0-5.72-1.97-8.53-4.14-8.53-1.23,0-2.02.35-2.66,1.33-.98,1.53-1.63,3.65-1.63,7.64,0,2.86.25,4.73,1.23,6.85.64,1.33,1.43,2.12,3.25,2.12,2.71,0,3.94-3.99,3.94-9.42M88.1,137.96c-1.87-2.07-2.61-4.68-2.61-7.79,0-2.22,1.23-5.87,4.24-8.18,2.52-1.97,5.03-2.51,7.34-2.51,3.4,0,5.72,1.03,7.94,3.1,2.42,2.17,3.4,4.83,3.4,7.84s-1.24,5.62-3.16,7.69c-2.37,2.46-5.22,3.45-8.58,3.45-3.6,0-6.06-.74-8.58-3.6" fill="#fff"></path><path d="M117.63,119.82c.44-.2.79-.34,1.13-.34.29,0,.59.15.69.64l.39,2.81h.25c1.38-1.92,3.89-3.45,7-3.45s4.68,1.43,5.97,3.45h.25c1.67-1.97,4.09-3.3,6.6-3.3,2.22,0,3.25.3,4.78,1.87,1.43,1.43,2.12,1.87,2.12,6.75v3.55c0,1.68-.14,4.39-.2,5.42-.05,1.38.64,1.92,1.43,1.92h.99c.44,0,.54.1.54.44v.94c0,.35-.1.49-.35.49-.35,0-1.73-.15-5.32-.15-2.96,0-4.73.15-5.08.15-.29,0-.39-.15-.39-.59v-.84c0-.35.15-.44.29-.44h.44c.35,0,.94-.25.98-.94.1-1.13.25-2.91.25-4.73v-4.73c0-3.05-.15-4.09-.79-4.78-.79-.89-1.28-1.18-2.42-1.18-1.38,0-2.36,1.03-2.96,1.58-.74.84-.74,2.42-.74,3.1v9.76c0,1.43.29,1.92.84,1.92h.89c.44,0,.54.1.54.44v.89c0,.39-.1.54-.34.54-.34,0-1.63-.15-4.63-.15-3.65,0-5.32.15-5.62.15-.25,0-.34-.15-.34-.49v-.89c0-.4.05-.49.49-.49h.69c.69,0,1.18-.64,1.18-3.5v-7.3c0-3.4-.49-4.53-1.08-5.07-.44-.44-1.23-.59-2.32-.59-.99,0-2.12.69-2.71,1.53-.64.98-.84,2.12-.79,3.99v7.93c0,2.51.49,3.01,1.03,3.01h.45c.44,0,.49.1.49.44v.89c0,.34-.05.54-.39.54-.44,0-1.77-.15-5.27-.15-3.3,0-4.88.15-5.27.15-.3,0-.39-.1-.39-.45v-.98c0-.4.05-.44.59-.44h1.38c.49,0,.88-.54.94-1.23.05-.84.05-2.07.05-3.35v-6.21c0-2.17-.34-2.96-1.57-3.69l-.99-.59c-.25-.15-.34-.25-.34-.39v-.59c0-.15.1-.35.29-.44l6.36-2.81Z" fill="#fff"></path><path d="M157.01,115.59c-1.97.05-3.45-1.28-3.45-3.21,0-1.58,1.63-3.01,3.7-3.01,2.31,0,3.5,1.48,3.5,2.86,0,1.58-1.08,3.3-3.74,3.35M163.76,141.02c-.39,0-2.66-.15-6.95-.15-2.86,0-4.79.15-5.32.15-.25,0-.4-.1-.4-.49v-.99c0-.29.15-.39.49-.39h1.83c.54,0,.89-.2.94-.99.1-1.48.1-3,.1-4.39l-.1-6.9c0-1.38-.29-2.36-2.36-3.1-.55-.2-.59-.39-.59-.69v-.54c0-.15.1-.25.54-.39l7.34-2.37c.55-.2.99-.29,1.33-.29.39,0,.54.25.49.59-.09.84-.09,3.94-.09,8.28v5.28c0,1.92,0,3.7.05,4.24.1.94.35,1.28.89,1.28h1.77c.39,0,.49.15.49.44v.94c0,.35-.1.49-.45.49" fill="#fff"></path><path d="M175.1,122.19h.39c.54-.64,1.43-1.28,2.37-1.78,1.09-.59,2.17-.94,3.79-.94,1.92,0,3.79.2,5.08,1.38,2.07,1.92,2.22,3.15,2.22,5.62v5.22c0,1.68-.1,3.99-.2,5.72-.05,1.48.74,1.72,1.18,1.72h1.33c.44,0,.54.15.54.44v.89c0,.34-.1.54-.39.54-.34,0-1.87-.15-5.81-.15-3.26,0-4.83.15-5.18.15-.29,0-.4-.15-.4-.54v-.89c0-.35.15-.44.64-.44h.54c.35,0,.79-.25.89-1.14.2-1.28.3-2.86.3-5.12v-5.28c0-1.87-.15-3.15-1.18-4.09-.89-.79-1.58-.89-2.41-.89-.89,0-1.53.24-2.51.99-.59.44-.99,1.77-.99,3.79l-.1,10.1c0,.89.34,1.63.79,1.63h.64c.39,0,.49.15.49.49v.94c0,.3-.1.44-.34.44-.35,0-1.68-.15-4.93-.15-3.5,0-5.07.15-5.37.15-.25,0-.35-.15-.35-.44v-.98c0-.3.1-.44.49-.44h.74c.54,0,1.38-.15,1.38-.98v-10.94c0-1.48-.84-2.32-1.97-2.86l-.45-.2c-.3-.15-.34-.35-.34-.54v-.44c0-.25.2-.39.44-.49l6.31-2.86c.39-.15.74-.35,1.13-.35.29,0,.59.25.69.59l.55,2.12Z" fill="#fff"></path><path d="M205.26,126.72c1.09,0,1.58-.24,1.58-.98,0-2.17-.89-4.29-2.41-4.29-2.32,0-3.55,1.82-3.89,5.27h4.73ZM200.48,128.6v1.33c0,5.13,2.91,7.64,6.5,7.64,2.42,0,4.39-1.14,5.37-2.71.1-.25.29-.3.49-.15l.84.44c.2.1.35.35-.1,1.18-.89,1.82-4.09,5.22-8.72,5.22-3.16,0-5.77-.54-7.39-2.32-2.51-2.71-3.35-4.63-3.4-8.48,0-1.38,0-3.99,2.21-7.25,1.78-2.61,4.78-4.04,8.58-4.04,7.98,0,8.43,7.64,8.43,8.43,0,.64-.44.69-1.53.69h-11.29Z" fill="#fff"></path><path d="M225.17,122.19h.39c.54-.64,1.43-1.28,2.37-1.78,1.08-.59,2.17-.94,3.79-.94,1.92,0,3.8.2,5.08,1.38,2.07,1.92,2.22,3.15,2.22,5.62v5.22c0,1.68-.1,3.99-.2,5.72-.05,1.48.74,1.72,1.18,1.72h1.33c.44,0,.54.15.54.44v.89c0,.34-.1.54-.39.54-.35,0-1.87-.15-5.82-.15-3.25,0-4.83.15-5.17.15-.3,0-.4-.15-.4-.54v-.89c0-.35.15-.44.64-.44h.54c.34,0,.79-.25.89-1.14.2-1.28.3-2.86.3-5.12v-5.28c0-1.87-.15-3.15-1.18-4.09-.89-.79-1.58-.89-2.42-.89-.89,0-1.53.24-2.51.99-.59.44-.99,1.77-.99,3.79l-.1,10.1c0,.89.35,1.63.79,1.63h.64c.39,0,.49.15.49.49v.94c0,.3-.1.44-.34.44-.34,0-1.68-.15-4.93-.15-3.5,0-5.08.15-5.37.15-.25,0-.34-.15-.34-.44v-.98c0-.3.1-.44.49-.44h.74c.54,0,1.38-.15,1.38-.98v-10.94c0-1.48-.84-2.32-1.97-2.86l-.44-.2c-.3-.15-.35-.35-.35-.54v-.44c0-.25.2-.39.44-.49l6.31-2.86c.39-.15.74-.35,1.14-.35.3,0,.59.25.69.59l.54,2.12Z" fill="#fff"></path><path d="M252.97,133.67c0,4.04,1.53,4.93,2.71,4.93,1.04,0,1.78-.15,2.57-.59.15-.1.29-.1.44.2l.34.74c.15.24,0,.49-.2.64-.84.59-3.05,1.97-6.9,1.97-3.35,0-5.47-2.32-5.47-4.58,0-1.73.1-5.47.1-7.34l.05-6.51h-2.71c-.44,0-.79-.2-.79-.69s.3-.84,1.08-1.23c1.63-.74,5.77-4.44,7.59-6.5.34-.39.69-.49.93-.49.45,0,.64.35.64.74l-.2,5.23h6.26c.29,0,.44.24.34.44l-.5,2.12c-.04.2-.14.39-.44.39h-5.77c-.1,2.02-.1,4.39-.1,6.65v3.89Z" fill="#fff"></path></g><polygon points="297.09 212.93 0 212.93 0 71.13 107.65 71.13 107.65 75.98 4.85 75.98 4.85 208.07 292.23 208.07 292.23 168.29 297.09 168.29 297.09 212.93" fill="#f5a800"></polygon><path d="M148.33,86.42c-4.09-1.46-2.04,1.88-2.04,4.14.03.45.03.89.03,1.34-.36.92-.43,1.93-.85,2.92-2.56,3.29,3.67,2.98,4.23-.45.12-.65.12-1.48.12-2.14-.19-1.74.03-4.8-1.48-5.81ZM160.91,88.82c-.11-1.64.14-4.09-1.36-5.1-4.37-1.95-1.51,3.81-2.12,5.95-.12,1.76-2.71,4.14-.35,4.79.54,0,1.1,0,1.67-.02,1.95-1.08,2.85-3.46,2.16-5.62ZM171.68,82.45c-.47-1.57-1.76-1.74-3.24-1.74-.54.4.03,6.32.03,7.24-.59,1.51-2.78,3.41-.07,3.88,5.17,0,3.38-6.13,3.29-9.37ZM151.75,83.58c-.47-.24-1.81-1.57-.43-1.17,1.25,0,1.29.42.43,1.17M160.47,77.91c-.66,0-1.34,0-2.02.02-1.7,0,2.49,2.96,2.67,3.36.24.26,1.06,1.22.66,1.62-1.44.24-7.97-.73-8.53-2.13-.3-.02-2.64-3.69-3.13-4.19-.21-.68,4.11-3.1,4.7-3.69,0-1.08,5.69-4.04,6.7-4.7,0-.92-.36-.82-1.01-1.34-5.79-.26,5.34-4.89.21-5.38-.54-.26-2.77.23-1.94-1.06.37-.51,2.23-4.44,3.21-3.45.82,2.8,5.06-2.42,6.87-.99,0,.99-1.79,2.96-1.04,3.72.68,0,3.46.16,2.02,1.11-.75.75-3.57,3.27-2.56,4,3.52,1.01-.4,2.3-1.9,3.5-1.2.47-2.41,2.75-3.89,2.96-1.06,1.06-5.31,2.16-2.42,3.43,1.32.33,1.41.56,2.3,1.46.73,1.46,1.55,1.65-.92,1.76M163.01,80.59c-1.53-1.32,1.5-1.57.17-.05-.05,0-.1.02-.17.05M173.14,75.07h-3.2c-2.42,0,2.5,3.05,2.61,3.71.21.21,1.03,1.16.96,1.36-1.62,0-8.15-.82-8.81-1.98-1.32-.66-2.01-3.38-3.34-4.32-.49-.49,2.97-2.33,3.41-2.78,1.06-1.86,4.38-3.62,6.14-4.68.61,0,2.99-1.64,1.65-1.86-1.81-1.43-3.81.07-1.39-2.66.49-.28,3.22-2.94,1.78-3.03-1.04-.4-4.2.31-2.47-2.02,0-.63,2.51-3.64,2.8-2.51,1.38,2.28,5.29-2.77,6.84-1.22-.28,2.3-2.96,3.88.8,3.97,2.33.99-4.79,3.72-2.02,5.1,3.34,0-1.43,2.66-2.19,3.03-1.62,1.62-4.14,4-6.44,4.56-.26.54-2.61,1.46-.55,1.79.73.73,2.24.19,2.42,1.41.31.28,1.62,1.81.99,2.12M174.17,77.82c-1.6-.52,1.32-1.98.44-.21-.14.07-.28.14-.44.21M192.42,54.64v.23c-.45.52-2.19,3.04-2.71,3.04-.35,2.14.64.87,1.67,1.9.3.94-3.6,2.16-4.04,3.06-1.95,1.95-4.71,2.89-6.56,4.75-2.11.7,2.83,1.83,2.83,2.72,2.51,2.52-1.44,1.64-2.92,2.1-.7.51,3.15,3.06,3.31,4.04,1.2,1.2-4.04.4-4.75-.02-4.4,1.08-4.28-5.21-6.48-5.21-.99-.99,1.08-1.48,1.73-2,1.06,0,2.16-1.76,2.99-2.3,1.37-1.74,3.95-2.61,5.74-3.79,2.32-1.15,0-1.95-1.65-2.04-.94-.57,2.82-4.07,3.36-4.61.52-1.57-4.68.68-3.38-1.6.16-1.63,1.2-2.9,2.53-3.72.28,0,.48.63.68.85,2.54.16,3.83-1.86,6.49-1.86.24.23-.41,1.36-.45,1.72-1.96,2.94.35,1.5,1.6,2.75M146.83,60.16c-1.58-1.11-2.23-1.97-4.47-1.97-1.74-.33.24-2.45-.44-3.48,0-2.26-6.75,4.07-5.74-.47.68-.68,1.37.26,1.53-1.06,1.13-1.69-.63-5.76,3.18-3.22,1.97,0,2.94-1.41,3.06,1.08.46,1.46.7,4.91,3.17,3.93.9-.09,5.18-2.7,4.05.12,0,.89-3.55,5.08-4.33,5.08M152.51,58.38c-2.09-2.09,2.21-2,.35-.14-.11.05-.23.1-.35.14M157.27,56.61c-1.13-.21-1.86-1.13-3.29-1.27-2.54-.64,1.46-5.17-3.37-3.17-1.12,0-3.1,2.16-3.31.12.8-1.43,1.63-1.1,1.86-3.1.88-2.04-.35-3.27,2.24-2.42,1.45,1.95,3.54-1.6,3.78,1.08.38.75-.09,1.43.59,2.12,1.44.19.66.87,1.29,1.71,0,1.5,4.96-.89,5.39-.47-.36,3.25-2.08,5.08-5.17,5.41M164.06,55.67c-2.54-1.69,2.15-2.64.26-.14-.07.05-.16.1-.26.14M168.74,53.84c-.85-.43-1.53-1.27-2.47-1.64-2.98,0-1.53-.75-1.53-2.89-1.44-1.91-4.98,1.9-6.06.82,0-.87-.14-1.13.51-1.67,2.12,0,.8-7.03,3.46-4.37,2.94,1.05,3.99-1.65,3.99,2.56.97,1.2,1.36.54,1.51,2.49,1.11,1.1,6.75-2.14,5.55.28-.24,2.42-2.85,3.83-4.96,4.42M175.02,52.76c-.42-.54-.5-.71-.44-1.41,1.42-1.15,1.92.77.44,1.41M158.04,64.04c-1.03,1.48-3.72,2.94-1.52,4.02,2.42,0-.52,1.67-.9,2.05-1.81.96-3.69,3.81-5.54,4.02-1.04.85-5.41,2.68-2.07,3.5.37.38,1.64-.02,1.64.99.63.47,1.51,1.6.57,2.07-.24,0-1.14-.12-1.28.02-1.76.05-2.99-.14-1.59,1.25,0,1.01,3.92,2.16,2.99,3.59-2.78.02-5.65-.92-8.27-.59-.57.52-1.81,1.39-2,2.16-.78.77-2.39-.8-2.94-.21-.26-.08-.58-.14-.93-.19-.2-1.35-.39-2.71-.45-4.07-1.75-4.68.49-2.92,2.44-5.36,1.44-.63,1.88,1.46,3.29,1.46.28.28.21,1.91-.17,2.07-1.29,1.92-.7,2.99.9.99,1.32,0,2.98,1.55,2.02-.84.35-1.09,1.72-1.15-.26-1.46-1.03,0-2.87-2.07-3.64-2.91-.77-1.3,4.61-4.82,5.71-5.41,1.26-.09,2.68-.16,3.9-.49.47-.8-1.31-.82-1.67-.82-1.25-1.25,4.32-2.35,4.32-2.35,1.24-.19.64-.99-.3-1.1-.16-.16,2.03-4.02.35-2.82-1.51.21-1.2,2.05-2.54.35-.94,0-.35,3.46-2.33,3.46-2.3,2.3-.97-2.7-1.57-3.12-1.27-.24-1.35,3.15-1.32,3.92.8,2.42-2.19,3.57-3.98,4.24-.87,1.76-3.86,4.51-6.04,4.51-.89-.9-.17-2.68-.77-3.6,0-1.55,1.57-1.43.09-2.47-.42-.15-.84-1.51-.96-1.96-1.34-1.67,2.42-4.77,3.71-5.4,4.12-.45-.92-4.37-.92-1.3-.35.42-1.41,2.3-1.97,2.3-2.87,2.87-3.01-2.77-3.01-4.49,1.62-1.62-.8-1.06-.8-2.68-1.6-3.74-1.04,3.38-.22,4.21.33,2.07.42,5.88-2.42,3.59-.21-.68-4.96-1.55-5.95-1.55-.36.35.96.85,1.17.85,1.2.94,2.3,1.08.33,1.58-.73.54,2.09.63,2.51.68,1.65-.17-.09,2.12,2.43.87,1.95-2.61,3.76,2.7,3.06,4.11-.14.73,1.76,2.56.98,3.34-.06.99.5,2.54-.18,3.22-1.71.28-4.21.4-5.9.14-2.89.14-1.1-.8-2.36-2.38-1.72-.73-.52,1.13-1.26,1.86-1.95.35-2.4.1-2.98-1.41-.4-1.65-2.16-2.75-3.9-2.75-.47.47,2.19,2.33,2.39,2.78.4,1.66-2.04,2.11-3.1,1.27-.23-1.53-3.2-2.56-4.24-3.6-4.32-.96,1.86,2.64,2.1,3.34,2,1.11.58,2.54-1.02,2.54-1.34.66,1.39.23,1.67.23,1.77-.33,7.5-2.59,7.5-.03.44.36.8.21,1.32.14,1.69-.85,6.98-1.46,8.3-.47.87,1.74-2.42,2.77-3.46,2.77-1.06.19-4.3,1.55-4.3,2.37-.31.47-4.21,1.81-3.7,2.52,1.84.16,7.34-5.24,7.34-2.02.8.8,1.81-.63,1.81-1.34.68-.54,3.57-3.03,4.25-2.54.19.94.42,4.37,1.18,4.82.02.03.03.06.05.09-.59,0-1.13.02-1.49.04-.28-.09-.62-.14-1.03-.15-.56,0-1.15,0-1.74.02-1.72,0-2.44,1.32-3.1,2.65-1.16.85-2.75,1.25-4.05,1.88-1.97.21.17-1.79.17-2.57-.57-.56-6.54,1.98-7.74,2.26-1.65-1.22,3.4-5.69,4.28-6.27.23-2.24-9.88-.02-11.9-2.73-1.33-.1,4.75-2,1.04-3.48-.72,0-3.59-5.59-4.09-6.58v-.14c.12-.17.19-.4.45-.4h5.01c2.05,0,4.09,3.11,3.78-.89-.53-2.33,3.62.97,4.54,1.32,1.04,1.03,3.97.23,5.19,1.46,1.3,0,4.11.66,4.99-.42-.07-.71-3.98-3.76-4.88-3.88-1.6-.8-5.99-1.3-2.77-3.36.59-.59-.16-1.57-.45-2.14-2.53-3.38,3.77.1,4.85-1.27.02-.96-1.24-4.68-1.18-4.8,2.25-1.13,2.92.49,3.1-2.94.64-4.54,1.79-.75,4.35-1.24,2.51-2.52.57,2.85,2.85,2.91.86.71.5,3.2,2.68,1.74.75-.14,2.93-1.64,3.5-.68-.28,3.01-.09,2,1.86,2.63.68,1.03-1.32,2.47-.26,4.23,0,.78-4.03,4.53-2.55,4.89,1.34.44,2.89-1.13,3.72-1.96.38-1.58,2.17-3.36,2.35-4.96.91-.92,3.45,1.27,4.4-1.6,1.24-1.88,1.57,2.02,3.78-.19.57-1.15,5.76-2.04,3.79-.07,0,.98-1.25,1.85-.89,2.73.44.35,4.04.28,1.83,1.39ZM135.33,87.45c1.5.38,1.81.61,1.81.61.8,1.76.36,4.87,1.23,6.61,0,2.75-.33,4.61-3.31,5.27v.05h-.98c0-.08-.64-.14-.55-1.37,2.37-1.58.89-4.58.89-6.77-.65-1.33-.44-2.66-.9-3.76,0,0,.3-1.01,1.8-.64Z" fill="#b2292e"></path><path d="M351.42,61.29h-59.17v31.24c2.56-3.16,6.21-5.76,10.95-7.76,4.76-2.01,9.81-3.02,15.16-3.02,9.74,0,17.72,2.14,23.93,6.4,6.22,4.27,10.71,9.72,13.52,16.35,2.81,6.64,4.2,13.72,4.2,21.27,0,14.01-3.98,25.27-11.96,33.79-7.97,8.53-19.32,12.78-34.06,12.78-13.89,0-24.97-3.47-33.25-10.42-8.28-6.93-12.96-16.01-14.07-27.21h24.84c1.11,4.88,3.57,8.76,7.4,11.69,3.84,2.93,8.74,4.39,14.71,4.39,7.18,0,12.6-2.26,16.26-6.77,3.65-4.51,5.48-10.46,5.48-17.9s-1.86-13.31-5.58-17.27c-3.71-3.95-9.16-5.93-16.34-5.93-5.11,0-9.38,1.28-12.79,3.84-3.4,2.56-5.84,5.97-7.3,10.23h-24.47V38.83h82.55v22.46Z" fill="#b2292e"></path></svg> 